<?xml version="1.0" standalone="no"?>
<!DOCTYPE svg PUBLIC "-//W3C//DTD SVG 20010904//EN"
 "http://www.w3.org/TR/2001/REC-SVG-20010904/DTD/svg10.dtd">
<svg version="1.0" xmlns="http://www.w3.org/2000/svg"
 width="932.000000pt" height="1002.000000pt" viewBox="0 0 932.000000 1002.000000"
 preserveAspectRatio="xMidYMid meet">

<g transform="translate(0.000000,1002.000000) scale(0.100000,-0.100000)"
fill="#000000" stroke="none">
<path d="M1913 6693 c3 -3582 0 -3328 52 -3633 41 -239 130 -544 226 -774 191
-455 450 -839 803 -1192 607 -607 1334 -957 2216 -1066 140 -17 660 -17 800 0
458 57 820 161 1207 347 1107 533 1881 1588 2057 2805 57 394 44 889 -34 1280
-123 614 -370 1147 -754 1630 -123 154 -383 416 -531 534 -139 112 -396 283
-545 363 -381 206 -805 340 -1265 400 -216 28 -678 25 -875 -5 -738 -114
-1370 -442 -1902 -985 l-118 -119 0 1866 0 1866 -670 0 -670 0 3 -3317z m3842
-713 c399 -29 768 -150 1085 -358 833 -544 1218 -1531 970 -2488 -229 -887
-977 -1549 -1899 -1680 -141 -20 -436 -23 -571 -5 -590 78 -1106 360 -1481
810 -274 328 -451 738 -510 1181 -18 135 -15 430 5 571 58 407 223 795 473
1112 73 93 277 297 370 370 356 280 801 454 1247 486 161 12 158 12 311 1z"/>
<path d="M795 1830 c-353 -55 -634 -305 -742 -657 -24 -79 -26 -105 -27 -243
-1 -130 3 -168 21 -235 73 -268 264 -495 508 -606 132 -60 204 -74 380 -74
176 0 248 14 380 74 193 88 374 271 460 466 55 125 70 206 69 375 -1 138 -3
164 -27 243 -98 320 -340 557 -652 637 -92 24 -279 34 -370 20z"/>
</g>
</svg>